<?xml version="1.0" standalone="no"?>
<!DOCTYPE svg PUBLIC "-//W3C//DTD SVG 20010904//EN"
 "http://www.w3.org/TR/2001/REC-SVG-20010904/DTD/svg10.dtd">
<svg version="1.0" xmlns="http://www.w3.org/2000/svg"
 width="406.000000pt" height="406.000000pt" viewBox="0 0 406.000000 406.000000"
 preserveAspectRatio="xMidYMid meet">
<metadata>
Created by potrace 1.14, written by Peter Selinger 2001-2017
</metadata>
<g transform="translate(0.000000,406.000000) scale(0.100000,-0.100000)"
fill="#000000" stroke="none">
<path d="M1940 4043 c0 -4 -33 -9 -72 -11 -40 -2 -77 -7 -83 -12 -13 -11 -26
-10 -47 1 -10 5 -18 5 -20 -1 -2 -5 -22 -11 -46 -13 -24 -3 -48 -9 -54 -15 -6
-6 -17 -8 -24 -5 -8 3 -20 0 -28 -6 -7 -6 -15 -8 -18 -5 -4 3 -28 -2 -55 -12
-26 -9 -55 -17 -63 -18 -9 -1 -20 -5 -25 -8 -6 -3 -28 -11 -50 -18 -22 -7 -45
-16 -50 -21 -6 -4 -33 -15 -60 -24 -28 -10 -57 -23 -65 -29 -8 -7 -35 -21 -60
-31 -25 -10 -54 -27 -66 -37 -11 -10 -24 -18 -29 -18 -12 0 -99 -56 -168 -107
-31 -24 -62 -43 -67 -43 -6 0 -10 -7 -10 -15 0 -8 -4 -15 -9 -15 -5 0 -16 -6
-23 -12 -99 -92 -126 -118 -122 -118 3 0 -15 -18 -40 -39 -25 -21 -42 -42 -39
-45 4 -3 2 -6 -4 -6 -5 0 -41 -39 -78 -87 -38 -49 -74 -93 -81 -99 -7 -5 -16
-22 -19 -37 -4 -15 -11 -27 -15 -27 -4 0 -20 -24 -35 -52 -15 -29 -34 -61 -43
-70 -8 -10 -12 -18 -8 -18 3 0 -6 -19 -21 -42 -14 -24 -25 -43 -23 -43 1 0 -7
-21 -19 -47 -32 -71 -45 -102 -46 -113 -1 -5 -7 -22 -13 -36 -6 -15 -16 -46
-22 -70 -6 -24 -14 -51 -17 -59 -8 -19 -12 -38 -16 -70 -2 -14 -6 -30 -9 -35
-5 -9 -17 -79 -32 -180 -2 -16 -7 -37 -11 -46 -3 -10 -2 -20 4 -23 7 -5 7 -15
0 -34 -6 -14 -9 -40 -9 -57 1 -16 1 -32 0 -35 -6 -20 -3 -110 4 -110 5 0 3 -6
-3 -14 -9 -11 -9 -16 0 -21 8 -6 7 -10 -2 -16 -8 -5 -9 -9 -3 -9 14 0 19 -36
11 -75 -2 -11 -1 -27 4 -35 4 -8 13 -53 19 -100 7 -47 19 -105 26 -129 8 -24
13 -50 10 -57 -3 -8 1 -20 9 -28 8 -7 12 -16 10 -18 -3 -2 4 -28 14 -56 11
-29 17 -52 15 -52 -3 0 1 -10 8 -22 7 -13 13 -26 14 -30 1 -5 3 -10 4 -13 3
-6 5 -12 15 -42 4 -13 12 -23 18 -23 6 0 8 -3 4 -6 -7 -7 68 -160 92 -188 9
-10 15 -21 14 -25 -2 -9 30 -61 38 -61 4 0 10 -14 14 -30 4 -17 10 -30 15 -30
9 0 87 -104 79 -106 -2 -1 11 -13 29 -28 18 -16 29 -33 25 -39 -3 -7 -3 -10 0
-7 3 3 59 -46 124 -110 99 -97 275 -245 293 -245 3 0 19 -10 37 -23 17 -12 34
-22 37 -22 3 0 25 -13 48 -29 24 -16 46 -27 50 -25 5 3 8 0 8 -5 0 -6 3 -10 8
-9 4 1 23 -6 42 -17 19 -11 37 -20 40 -20 3 -1 27 -11 55 -24 27 -13 54 -24
60 -26 5 -1 23 -7 38 -13 16 -7 33 -12 38 -12 5 0 9 -3 9 -7 0 -5 10 -9 23
-10 36 -2 192 -46 198 -56 4 -5 9 -5 13 1 4 6 19 5 43 -3 20 -7 54 -12 75 -11
21 0 38 -2 38 -6 0 -5 21 -8 48 -8 26 0 65 -5 87 -10 22 -5 42 -6 45 -2 6 9
57 8 66 0 3 -4 16 -3 28 2 13 4 29 4 36 0 8 -5 19 -5 26 1 8 7 14 6 19 -1 4
-7 12 -7 25 0 10 5 40 10 67 10 26 0 55 4 63 10 9 5 19 5 27 -2 7 -6 13 -6 13
-1 0 5 14 10 31 11 17 1 39 7 50 12 12 7 20 7 25 -1 4 -7 9 -7 13 -2 5 8 66
26 161 48 8 2 15 4 15 5 0 1 7 3 15 5 8 1 41 13 72 25 32 12 59 20 61 18 2 -2
12 4 21 12 10 8 27 16 39 17 12 2 24 8 27 12 3 5 18 13 33 16 15 4 27 11 27
16 0 5 7 9 15 9 8 0 15 4 15 10 0 5 6 7 14 4 7 -3 20 2 29 10 9 9 23 16 32 16
9 0 13 5 10 10 -3 6 0 10 7 10 12 0 80 43 172 108 21 15 49 34 62 43 13 9 21
19 17 22 -3 4 -1 7 6 7 6 0 41 27 76 60 35 33 70 60 76 60 7 0 10 3 6 6 -5 6
24 40 116 136 9 10 17 23 17 29 0 5 4 8 9 4 5 -3 12 3 15 13 4 10 14 27 24 38
23 26 72 98 72 107 0 4 9 16 20 27 12 12 18 25 15 30 -3 4 -2 10 3 12 14 6 52
66 52 82 0 9 5 16 12 16 6 0 8 3 5 6 -4 4 2 19 12 33 10 14 29 53 42 86 13 33
27 61 31 63 4 2 5 9 2 17 -3 7 0 16 5 20 6 3 9 11 6 16 -4 5 -1 9 6 9 6 0 9 8
7 18 -3 10 1 24 9 31 8 7 13 22 10 32 -3 10 2 20 10 23 8 3 12 9 9 14 -2 4 3
32 11 62 22 80 32 134 27 142 -3 5 -2 8 3 8 4 0 9 21 11 47 2 26 7 52 12 58 6
7 5 16 -1 22 -8 8 -8 13 0 17 15 10 15 416 0 416 -5 0 -8 4 -5 9 8 12 -24 204
-36 219 -7 8 -7 12 2 12 9 0 9 4 2 13 -6 7 -13 25 -16 41 -3 15 -15 58 -28 95
-12 36 -23 69 -24 74 -1 4 -3 10 -4 15 -1 4 -2 10 -1 15 0 4 -3 7 -9 7 -5 0
-10 11 -10 25 0 14 -4 25 -10 25 -5 0 -10 7 -10 15 0 9 -23 60 -50 114 -27 54
-50 104 -50 110 0 7 -4 9 -10 6 -5 -3 -10 -1 -10 6 0 12 -55 104 -75 125 -5 6
-19 27 -30 47 -11 20 -25 37 -32 37 -7 0 -13 6 -13 13 0 18 -189 227 -206 227
-5 0 -18 13 -29 29 -10 16 -23 27 -27 25 -4 -3 -8 -1 -8 3 0 5 -32 33 -71 63
-39 30 -77 60 -83 65 -6 6 -23 16 -36 24 -14 8 -60 36 -102 62 -43 27 -78 46
-78 43 0 -3 -15 5 -32 18 -18 13 -35 23 -38 22 -3 0 -32 12 -65 26 -92 42
-172 70 -179 63 -3 -4 -6 -2 -6 4 0 9 -54 28 -72 24 -4 0 -25 6 -45 14 -21 8
-56 16 -78 18 -22 1 -42 5 -45 9 -3 3 -30 9 -60 11 -30 3 -62 8 -70 10 -8 3
-48 8 -88 11 -41 3 -78 8 -82 11 -5 3 -11 1 -15 -5 -4 -7 -12 -7 -26 0 -11 6
-19 7 -19 1 0 -5 -14 -6 -35 -1 -20 4 -38 4 -41 -1 -3 -5 -13 -5 -25 1 -10 6
-19 7 -19 3z"/>
</g>
</svg>
